<?xml version="1.0" encoding="utf-8"?>
<!-- Generator: Adobe Illustrator 26.1.0, SVG Export Plug-In . SVG Version: 6.00 Build 0)  -->
<svg version="1.1" id="Ebene_1" xmlns="http://www.w3.org/2000/svg" xmlns:xlink="http://www.w3.org/1999/xlink" x="0px" y="0px"
	 viewBox="0 0 120 120" style="enable-background:new 0 0 120 120;" xml:space="preserve">
<style type="text/css">
	.st0{fill:url(#SVGID_1_);}
	.st1{fill:url(#SVGID_00000145043933612577471830000007689183939332724926_);}
	.st2{fill:#FFFFFF;}
</style>
<linearGradient id="SVGID_1_" gradientUnits="userSpaceOnUse" x1="14.0363" y1="98.5684" x2="105.9639" y2="21.4319">
	<stop  offset="0" style="stop-color:#FDC700"/>
	<stop  offset="0.3439" style="stop-color:#F08F34"/>
	<stop  offset="0.7073" style="stop-color:#E86031"/>
	<stop  offset="1" style="stop-color:#E2312D"/>
</linearGradient>
<circle class="st0" cx="60" cy="60" r="60"/>
<linearGradient id="SVGID_00000064315089278793889900000000479476558501034941_" gradientUnits="userSpaceOnUse" x1="244.9188" y1="72.7778" x2="280.2402" y2="43.1397">
	<stop  offset="0" style="stop-color:#FDC700"/>
	<stop  offset="0.3439" style="stop-color:#F08F34"/>
	<stop  offset="0.7073" style="stop-color:#E86031"/>
	<stop  offset="1" style="stop-color:#E2312D"/>
</linearGradient>
<circle style="fill:url(#SVGID_00000064315089278793889900000000479476558501034941_);" cx="262.6" cy="58" r="23.1"/>
<g>
	<path class="st2" d="M11.6,65.9c-1.6,0-2.9-0.3-3.9-1c-1-0.7-1.8-1.6-2.2-2.8l3-1.8c0.6,1.4,1.7,2.1,3.2,2.1c1.4,0,2.1-0.4,2.1-1.2
		c0-0.5-0.2-0.8-0.7-1.1c-0.4-0.3-1.3-0.6-2.5-0.9c-0.6-0.2-1.2-0.4-1.7-0.6c-0.5-0.2-1-0.5-1.4-0.9c-0.5-0.4-0.8-0.8-1.1-1.3
		c-0.2-0.5-0.4-1.2-0.4-1.9c0-1.4,0.5-2.5,1.5-3.4c1-0.8,2.2-1.3,3.6-1.3c1.3,0,2.4,0.3,3.3,0.9c1,0.6,1.7,1.4,2.3,2.6l-3,1.7
		c-0.3-0.6-0.6-1-1-1.3c-0.4-0.3-0.9-0.4-1.6-0.4c-0.5,0-0.9,0.1-1.2,0.3c-0.3,0.2-0.4,0.5-0.4,0.8c0,0.4,0.2,0.7,0.5,1
		c0.4,0.3,1.1,0.6,2.2,0.9c0.6,0.2,1.1,0.3,1.4,0.5c0.3,0.1,0.8,0.3,1.3,0.6c0.5,0.3,0.9,0.6,1.2,0.9c0.3,0.3,0.5,0.7,0.7,1.2
		c0.2,0.5,0.3,1,0.3,1.7c0,1.5-0.5,2.6-1.6,3.4C14.6,65.5,13.3,65.9,11.6,65.9z"/>
	<path class="st2" d="M25.4,54.4c1.4,0,2.7,0.6,3.7,1.7s1.5,2.5,1.5,4.1c0,1.6-0.5,3-1.5,4.1c-1,1.1-2.3,1.7-3.7,1.7
		c-1.4,0-2.5-0.4-3.3-1.3V70h-3.3V54.7h3.3v1C23,54.8,24,54.4,25.4,54.4z M22.9,62.1c0.5,0.5,1.1,0.7,1.9,0.7c0.8,0,1.4-0.2,1.9-0.7
		c0.5-0.5,0.7-1.1,0.7-1.9c0-0.8-0.2-1.5-0.7-1.9c-0.5-0.5-1.1-0.7-1.9-0.7c-0.8,0-1.4,0.2-1.9,0.7s-0.7,1.1-0.7,1.9
		C22.2,61,22.4,61.6,22.9,62.1z"/>
	<path class="st2" d="M35.8,56.6c0.2-0.7,0.6-1.2,1.2-1.6c0.6-0.4,1.3-0.6,2-0.6v3.7c-0.8-0.1-1.6,0-2.2,0.4c-0.7,0.4-1,1.1-1,2.1
		v4.9h-3.3V54.7h3.3V56.6z"/>
	<path class="st2" d="M47.8,54.7h3.5l-3.7,10.6c-0.6,1.7-1.4,3-2.4,3.7c-1,0.7-2.3,1.1-3.8,1v-3.1c0.8,0,1.3-0.1,1.8-0.4
		c0.4-0.3,0.7-0.7,1-1.4l-4.4-10.4h3.6l2.4,6.7L47.8,54.7z"/>
	<path class="st2" d="M63,65.6h-3.7l-3.5-4.8v4.8h-3.3V50.3h3.3v9.2l3.3-4.8h3.8l-4,5.5L63,65.6z"/>
	<path class="st2" d="M66.5,61.5c0.4,1,1.3,1.5,2.6,1.5c0.9,0,1.6-0.3,2.1-0.8l2.6,1.5c-1.1,1.5-2.7,2.3-4.8,2.3
		c-1.8,0-3.3-0.5-4.4-1.6c-1.1-1.1-1.7-2.5-1.7-4.1c0-1.6,0.5-3,1.6-4.1c1.1-1.1,2.5-1.7,4.2-1.7c1.6,0,2.9,0.6,4,1.7
		c1.1,1.1,1.6,2.5,1.6,4.1c0,0.5,0,0.9-0.1,1.3H66.5z M66.4,59h4.7c-0.3-1.2-1.1-1.7-2.3-1.7C67.5,57.3,66.7,57.9,66.4,59z"/>
	<path class="st2" d="M79.5,56.6c0.2-0.7,0.6-1.2,1.2-1.6c0.6-0.4,1.3-0.6,2-0.6v3.7c-0.8-0.1-1.6,0-2.2,0.4c-0.7,0.4-1,1.1-1,2.1
		v4.9h-3.3V54.7h3.3V56.6z"/>
	<path class="st2" d="M96.8,65.6h-4l-4.9-7.1v7.1h-3.5V50.3h3.5V57l4.7-6.7h4l-5.2,7.5L96.8,65.6z"/>
	<path class="st2" d="M98.1,50.3h3.5v15.3h-3.5V50.3z"/>
	<path class="st2" d="M114.6,50.3v3.4h-3.9v12h-3.5v-12h-3.9v-3.4H114.6z"/>
</g>
<g>
	<path class="st2" d="M174.3,65.9c-1.6,0-2.9-0.3-3.9-1c-1-0.7-1.8-1.6-2.2-2.8l3-1.8c0.6,1.4,1.7,2.1,3.2,2.1
		c1.4,0,2.1-0.4,2.1-1.2c0-0.5-0.2-0.8-0.7-1.1c-0.4-0.3-1.3-0.6-2.5-0.9c-0.6-0.2-1.2-0.4-1.7-0.6c-0.5-0.2-1-0.5-1.4-0.9
		c-0.5-0.4-0.8-0.8-1.1-1.3c-0.2-0.5-0.4-1.2-0.4-1.9c0-1.4,0.5-2.5,1.5-3.4c1-0.8,2.2-1.3,3.6-1.3c1.3,0,2.4,0.3,3.3,0.9
		c1,0.6,1.7,1.4,2.3,2.6l-3,1.7c-0.3-0.6-0.6-1-1-1.3c-0.4-0.3-0.9-0.4-1.6-0.4c-0.5,0-0.9,0.1-1.2,0.3c-0.3,0.2-0.4,0.5-0.4,0.8
		c0,0.4,0.2,0.7,0.5,1c0.4,0.3,1.1,0.6,2.2,0.9c0.6,0.2,1.1,0.3,1.4,0.5c0.3,0.1,0.8,0.3,1.3,0.6c0.5,0.3,0.9,0.6,1.2,0.9
		c0.3,0.3,0.5,0.7,0.7,1.2c0.2,0.5,0.3,1,0.3,1.7c0,1.5-0.5,2.6-1.6,3.4C177.3,65.5,175.9,65.9,174.3,65.9z"/>
	<path class="st2" d="M188.1,54.4c1.4,0,2.7,0.6,3.7,1.7c1,1.1,1.5,2.5,1.5,4.1c0,1.6-0.5,3-1.5,4.1c-1,1.1-2.3,1.7-3.7,1.7
		c-1.4,0-2.5-0.4-3.3-1.3V70h-3.3V54.7h3.3v1C185.6,54.8,186.7,54.4,188.1,54.4z M185.6,62.1c0.5,0.5,1.1,0.7,1.9,0.7
		c0.8,0,1.4-0.2,1.9-0.7c0.5-0.5,0.7-1.1,0.7-1.9c0-0.8-0.2-1.5-0.7-1.9c-0.5-0.5-1.1-0.7-1.9-0.7c-0.8,0-1.4,0.2-1.9,0.7
		s-0.7,1.1-0.7,1.9C184.9,61,185.1,61.6,185.6,62.1z"/>
	<path class="st2" d="M198.5,56.6c0.2-0.7,0.6-1.2,1.2-1.6c0.6-0.4,1.3-0.6,2-0.6v3.7c-0.8-0.1-1.6,0-2.2,0.4c-0.7,0.4-1,1.1-1,2.1
		v4.9h-3.3V54.7h3.3V56.6z"/>
	<path class="st2" d="M210.4,54.7h3.5l-3.7,10.6c-0.6,1.7-1.4,3-2.4,3.7c-1,0.7-2.3,1.1-3.8,1v-3.1c0.8,0,1.3-0.1,1.8-0.4
		c0.4-0.3,0.7-0.7,1-1.4l-4.4-10.4h3.6l2.4,6.7L210.4,54.7z"/>
	<path class="st2" d="M225.7,65.6h-3.7l-3.5-4.8v4.8h-3.3V50.3h3.3v9.2l3.3-4.8h3.8l-4,5.5L225.7,65.6z"/>
	<path class="st2" d="M229.1,61.5c0.4,1,1.3,1.5,2.6,1.5c0.9,0,1.6-0.3,2.1-0.8l2.6,1.5c-1.1,1.5-2.7,2.3-4.8,2.3
		c-1.8,0-3.3-0.5-4.4-1.6c-1.1-1.1-1.7-2.5-1.7-4.1c0-1.6,0.5-3,1.6-4.1s2.5-1.7,4.2-1.7c1.6,0,2.9,0.6,4,1.7
		c1.1,1.1,1.6,2.5,1.6,4.1c0,0.5,0,0.9-0.1,1.3H229.1z M229.1,59h4.7c-0.3-1.2-1.1-1.7-2.3-1.7C230.2,57.3,229.4,57.9,229.1,59z"/>
	<path class="st2" d="M242.2,56.6c0.2-0.7,0.6-1.2,1.2-1.6c0.6-0.4,1.3-0.6,2-0.6v3.7c-0.8-0.1-1.6,0-2.2,0.4c-0.7,0.4-1,1.1-1,2.1
		v4.9h-3.3V54.7h3.3V56.6z"/>
	<path class="st2" d="M259.5,65.6h-4l-4.9-7.1v7.1h-3.5V50.3h3.5V57l4.7-6.7h4l-5.2,7.5L259.5,65.6z"/>
	<path class="st2" d="M260.8,50.3h3.5v15.3h-3.5V50.3z"/>
	<path class="st2" d="M277.2,50.3v3.4h-3.9v12h-3.5v-12h-3.9v-3.4H277.2z"/>
</g>
</svg>
